<svg width="161" height="167" viewBox="0 0 161 167" fill="none" xmlns="http://www.w3.org/2000/svg">
<path fill-rule="evenodd" clip-rule="evenodd" d="M154.548 11.1628H126.385L119.185 72.0793H129.152C146.057 72.0793 159.761 58.4427 159.761 41.6211V16.3503C159.761 13.4853 157.427 11.1628 154.548 11.1628ZM147.69 20.6539H126.478L123.883 62.5651L131.249 60.5112C141.441 57.6696 148.71 48.7219 149.367 38.2098L150.291 23.4085C150.295 23.355 150.297 23.3013 150.297 23.2476C150.297 21.8151 149.13 20.6539 147.69 20.6539Z" fill="#FFC300"/>
<g filter="url(#filter0_i_0_263)">
<path fill-rule="evenodd" clip-rule="evenodd" d="M6.45201 11.1628H34.6145L41.8145 72.0793H31.8475C14.9429 72.0793 1.2389 58.4427 1.2389 41.6211V16.3503C1.2389 13.4853 3.57289 11.1628 6.45201 11.1628ZM13.3098 20.6539H34.5218L37.1169 62.5651L29.7504 60.5112C19.5584 57.6696 12.2893 48.7219 11.6327 38.2098L10.7083 23.4085C10.7049 23.355 10.7032 23.3013 10.7032 23.2476C10.7032 21.8151 11.8702 20.6539 13.3098 20.6539Z" fill="#FFC300"/>
</g>
<rect x="29.6721" y="151.438" width="101.656" height="3.89062" rx="1.94531" fill="#FFC300"/>
<g filter="url(#filter1_i_0_263)">
<path fill-rule="evenodd" clip-rule="evenodd" d="M37.4667 0.653107H80.4815H80.7747H123.789C125.225 0.653107 126.389 1.81717 126.389 3.25311V46.1463C126.389 46.1463 126.389 65.0088 112.162 81.5253C108.031 86.3211 103.878 89.8393 100.182 92.9706C92.1018 99.8156 86.2036 104.812 87.4858 117.266L80.7747 117.32V117.322L80.6281 117.321L80.4815 117.322V117.32L73.7703 117.266C75.0525 104.812 69.1543 99.8156 61.0742 92.9706C57.3778 89.8393 53.2249 86.3211 49.0938 81.5253C34.8667 65.0088 34.8667 46.1463 34.8667 46.1463V3.25311C34.8667 1.81717 36.0308 0.653107 37.4667 0.653107Z" fill="#FFC300"/>
</g>
<rect x="12.7295" y="163.109" width="24.7623" height="3.89062" rx="1.94531" fill="#FFC300"/>
<rect x="47.918" y="116.719" width="65.1639" height="35.0156" fill="#EC610A"/>
<rect x="58.3442" y="124.5" width="44.3115" height="19.4531" fill="#FFC300"/>
<rect x="51.8276" y="163.109" width="19.5492" height="3.89062" rx="1.94531" fill="#FFC300"/>
<path fill-rule="evenodd" clip-rule="evenodd" d="M80.4998 55.1172L65.9449 62.7316L68.7247 46.6041L56.9495 35.1825L73.2224 32.8295L80.4998 18.1562L87.7773 32.8295L104.05 35.1825L92.275 46.6041L95.0548 62.7316L80.4998 55.1172Z" fill="#EC610A"/>
<path d="M44.7292 36.5996C44.7292 36.5996 45.7781 54.8276 50.6023 64.5243" stroke="#EC610A" stroke-width="2.6" stroke-linecap="round" stroke-linejoin="round"/>
<path d="M54.698 72.7344C54.698 72.7344 58.2677 78.0203 60.5863 80.284" stroke="#EC610A" stroke-width="2.6" stroke-linecap="round" stroke-linejoin="round"/>
<rect x="79.1965" y="163.109" width="13.0328" height="3.89062" rx="1.94531" fill="#FFC300"/>
<rect x="105.262" y="163.109" width="53.4344" height="3.89062" rx="1.94531" fill="#FFC300"/>
<defs>
<filter id="filter0_i_0_263" x="1.23901" y="11.1628" width="40.5754" height="60.9165" filterUnits="userSpaceOnUse" color-interpolation-filters="sRGB">
<feFlood flood-opacity="0" result="BackgroundImageFix"/>
<feBlend mode="normal" in="SourceGraphic" in2="BackgroundImageFix" result="shape"/>
<feColorMatrix in="SourceAlpha" type="matrix" values="0 0 0 0 0 0 0 0 0 0 0 0 0 0 0 0 0 0 127 0" result="hardAlpha"/>
<feOffset dx="-6"/>
<feComposite in2="hardAlpha" operator="arithmetic" k2="-1" k3="1"/>
<feColorMatrix type="matrix" values="0 0 0 0 0 0 0 0 0 0 0 0 0 0 0 0 0 0 0.08 0"/>
<feBlend mode="normal" in2="shape" result="effect1_innerShadow_0_263"/>
</filter>
<filter id="filter1_i_0_263" x="34.8667" y="0.653107" width="91.5227" height="116.669" filterUnits="userSpaceOnUse" color-interpolation-filters="sRGB">
<feFlood flood-opacity="0" result="BackgroundImageFix"/>
<feBlend mode="normal" in="SourceGraphic" in2="BackgroundImageFix" result="shape"/>
<feColorMatrix in="SourceAlpha" type="matrix" values="0 0 0 0 0 0 0 0 0 0 0 0 0 0 0 0 0 0 127 0" result="hardAlpha"/>
<feOffset dx="6"/>
<feComposite in2="hardAlpha" operator="arithmetic" k2="-1" k3="1"/>
<feColorMatrix type="matrix" values="0 0 0 0 0 0 0 0 0 0 0 0 0 0 0 0 0 0 0.08 0"/>
<feBlend mode="normal" in2="shape" result="effect1_innerShadow_0_263"/>
</filter>
</defs>
</svg>
